<svg width="325" height="235" viewBox="0 0 325 235" fill="none" xmlns="http://www.w3.org/2000/svg">
<g clip-path="url(#clip0_79_262)">
<path d="M9.22856 125.005H7.82422V129.214H9.22856V125.005Z" fill="#E5E5E5"/>
<path d="M9.22856 218.89H7.82422V209.922H9.22856V218.89ZM9.22856 200.955H7.82422V191.987H9.22856V200.955ZM9.22856 183.019H7.82422V174.052H9.22856V183.019ZM9.22856 165.084H7.82422V156.116H9.22856V165.084ZM9.22856 147.149H7.82422V138.181H9.22856V147.149Z" fill="#E5E5E5"/>
<path d="M9.22856 227.858H7.82422V232.067H9.22856V227.858Z" fill="#E5E5E5"/>
<path d="M163.004 125.005H161.6V129.214H163.004V125.005Z" fill="#E5E5E5"/>
<path d="M163.004 218.89H161.6V209.922H163.004V218.89ZM163.004 200.955H161.6V191.987H163.004V200.955ZM163.004 183.019H161.6V174.052H163.004V183.019ZM163.004 165.084H161.6V156.116H163.004V165.084ZM163.004 147.149H161.6V138.181H163.004V147.149Z" fill="#E5E5E5"/>
<path d="M163.004 227.858H161.6V232.067H163.004V227.858Z" fill="#E5E5E5"/>
<path d="M240.572 42.6689H239.168V46.8778H240.572V42.6689Z" fill="#E5E5E5"/>
<path d="M240.572 219.24H239.168V210.622H240.572V219.24ZM240.572 202.004H239.168V193.385H240.572V202.004ZM240.572 184.767H239.168V176.149H240.572V184.767ZM240.572 167.531H239.168V158.913H240.572V167.531ZM240.572 150.295H239.168V141.677H240.572V150.295ZM240.572 133.059H239.168V124.441H240.572V133.059ZM240.572 115.823H239.168V107.205H240.572V115.823ZM240.572 98.5866H239.168V89.9686H240.572V98.5866ZM240.572 81.3502H239.168V72.7322H240.572V81.3502ZM240.572 64.1141H239.168V55.4961H240.572V64.1141Z" fill="#E5E5E5"/>
<path d="M240.572 227.858H239.168V232.067H240.572V227.858Z" fill="#E5E5E5"/>
<path d="M317.367 8.99805H315.963V13.2069H317.367V8.99805Z" fill="#E5E5E5"/>
<path d="M317.367 219.272H315.963V210.686H317.367V219.272ZM317.367 202.1H315.963V193.514H317.367V202.1ZM317.367 184.928H315.963V176.342H317.367V184.928ZM317.367 167.756H315.963V159.169H317.367V167.756ZM317.367 150.584H315.963V141.998H317.367V150.584ZM317.367 133.412H315.963V124.826H317.367V133.412ZM317.367 116.24H315.963V107.653H317.367V116.24ZM317.367 99.0676H315.963V90.4815H317.367V99.0676ZM317.367 81.8955H315.963V73.3095H317.367V81.8955ZM317.367 64.7235H315.963V56.1375H317.367V64.7235ZM317.367 47.5515H315.963V38.9655H317.367V47.5515ZM317.367 30.3795H315.963V21.7935H317.367V30.3795Z" fill="#E5E5E5"/>
<path d="M317.367 227.858H315.963V232.067H317.367V227.858Z" fill="#E5E5E5"/>
<path d="M86.4688 68.624H85.0645V72.8329H86.4688V68.624Z" fill="#E5E5E5"/>
<path d="M86.4688 219.699H85.0645V211.54H86.4688V219.699ZM86.4688 203.38H85.0645V195.221H86.4688V203.38ZM86.4688 187.062H85.0645V178.903H86.4688V187.062ZM86.4688 170.744H85.0645V162.584H86.4688V170.744ZM86.4688 154.425H85.0645V146.266H86.4688V154.425ZM86.4688 138.107H85.0645V129.948H86.4688V138.107ZM86.4688 121.788H85.0645V113.629H86.4688V121.788ZM86.4688 105.47H85.0645V97.3106H86.4688V105.47ZM86.4688 89.1512H85.0645V80.9922H86.4688V89.1512Z" fill="#E5E5E5"/>
<path d="M86.4688 227.858H85.0645V232.067H86.4688V227.858Z" fill="#E5E5E5"/>
<path d="M162.94 126.959L85.6416 69.1188L9.39918 126.168L7.6543 123.841L85.6416 65.4859L162.572 123.051L239.02 39.4746L239.327 39.3504L316.442 8.31104L317.529 11.0082L240.722 41.9234L162.94 126.959Z" fill="#3F3D56"/>
<path d="M8.52683 133.726C13.3483 133.726 17.2568 129.822 17.2568 125.005C17.2568 120.188 13.3483 116.284 8.52683 116.284C3.7054 116.284 -0.203125 120.188 -0.203125 125.005C-0.203125 129.822 3.7054 133.726 8.52683 133.726Z" fill="#0070F3"/>
<path d="M85.6411 77.0378C90.4625 77.0378 94.3711 73.1331 94.3711 68.3165C94.3711 63.4999 90.4625 59.5952 85.6411 59.5952C80.8197 59.5952 76.9111 63.4999 76.9111 68.3165C76.9111 73.1331 80.8197 77.0378 85.6411 77.0378Z" fill="#0070F3"/>
<path d="M162.756 133.726C167.578 133.726 171.486 129.822 171.486 125.005C171.486 120.188 167.578 116.284 162.756 116.284C157.935 116.284 154.026 120.188 154.026 125.005C154.026 129.822 157.935 133.726 162.756 133.726Z" fill="#E5E5E5"/>
<path d="M160.649 164.59C165.47 164.59 169.379 160.686 169.379 155.869C169.379 151.053 165.47 147.148 160.649 147.148C155.827 147.148 151.919 151.053 151.919 155.869C151.919 160.686 155.827 164.59 160.649 164.59Z" fill="#0070F3"/>
<path d="M239.871 49.4206C244.692 49.4206 248.601 45.5159 248.601 40.6993C248.601 35.8827 244.692 31.978 239.871 31.978C235.049 31.978 231.141 35.8827 231.141 40.6993C231.141 45.5159 235.049 49.4206 239.871 49.4206Z" fill="#0070F3"/>
<path d="M316.986 17.4425C321.807 17.4425 325.716 13.5379 325.716 8.72127C325.716 3.90465 321.807 0 316.986 0C312.164 0 308.256 3.90465 308.256 8.72127C308.256 13.5379 312.164 17.4425 316.986 17.4425Z" fill="#0070F3"/>
<path d="M123.827 217.191C140.528 217.191 154.067 203.665 154.067 186.98C154.067 170.295 140.528 156.77 123.827 156.77C107.125 156.77 93.5859 170.295 93.5859 186.98C93.5859 203.665 107.125 217.191 123.827 217.191Z" fill="#2F2E41"/>
<path d="M119.234 210.689H110.047V227.133H119.234V210.689Z" fill="#2F2E41"/>
<path d="M137.608 210.689H128.421V227.133H137.608V210.689Z" fill="#2F2E41"/>
<path d="M123.976 232.581C124.63 231.137 122.036 228.556 118.184 226.816C114.331 225.075 110.678 224.834 110.025 226.277C109.371 227.721 111.965 230.302 115.817 232.042C119.67 233.783 123.323 234.024 123.976 232.581Z" fill="#2F2E41"/>
<path d="M141.559 231.685C142.252 230.26 139.73 227.61 135.926 225.765C132.123 223.92 128.478 223.579 127.785 225.004C127.093 226.429 129.615 229.08 133.418 230.925C137.222 232.77 140.867 233.11 141.559 231.685Z" fill="#2F2E41"/>
<path d="M94.492 158.884C92.0502 147.96 99.8556 136.921 111.926 134.229C123.996 131.536 135.761 138.209 138.202 149.134C140.644 160.059 132.645 164.088 120.574 166.78C108.504 169.473 96.9338 169.809 94.492 158.884Z" fill="#0070F3"/>
<path d="M156.413 173.778C162.962 167.23 166.603 160.257 164.546 158.203C162.488 156.149 155.511 159.792 148.962 166.34C142.413 172.887 138.771 179.86 140.829 181.914C142.887 183.968 149.864 180.325 156.413 173.778Z" fill="#2F2E41"/>
<path d="M99.0039 199.468C101.381 190.521 101.028 182.665 98.2169 181.919C95.4055 181.174 91.1997 187.822 88.823 196.769C86.4463 205.715 86.7986 213.572 89.61 214.317C92.4214 215.063 96.6272 208.414 99.0039 199.468Z" fill="#2F2E41"/>
</g>
<defs>
<clipPath id="clip0_79_262">
<rect width="325" height="235" fill="white"/>
</clipPath>
</defs>
</svg>
